<svg width="28" height="15" viewBox="0 0 28 15" fill="none" xmlns="http://www.w3.org/2000/svg">
<path fill-rule="evenodd" clip-rule="evenodd" d="M27.016 14.4066C27.1138 14.309 27.1915 14.193 27.2445 14.0654C27.2974 13.9377 27.3247 13.8008 27.3247 13.6626C27.3247 13.5244 27.2974 13.3875 27.2445 13.2599C27.1915 13.1322 27.1138 13.0162 27.016 12.9186L14.406 0.308668C14.3084 0.210808 14.1924 0.133167 14.0648 0.0801916C13.9371 0.027216 13.8003 -5.24521e-05 13.662 -5.24521e-05C13.5238 -5.24521e-05 13.3869 0.027216 13.2593 0.0801916C13.1316 0.133167 13.0157 0.210808 12.918 0.308668L0.308075 12.9186C0.110758 13.116 -9.34601e-05 13.3836 -9.34601e-05 13.6626C-9.34601e-05 13.9417 0.110758 14.2093 0.308075 14.4066C0.505394 14.6039 0.773014 14.7148 1.05206 14.7148C1.33111 14.7148 1.59873 14.6039 1.79605 14.4066L13.662 2.53853L25.528 14.4066C25.6256 14.5045 25.7416 14.5821 25.8692 14.6351C25.9969 14.6881 26.1338 14.7153 26.272 14.7153C26.4102 14.7153 26.5471 14.6881 26.6747 14.6351C26.8024 14.5821 26.9184 14.5045 27.016 14.4066Z" fill="white"/>
</svg>
