<svg width="18" height="18" viewBox="0 0 18 18" fill="none" xmlns="http://www.w3.org/2000/svg">
<path d="M8.98464 17.9999C8.53276 17.9965 8.10036 17.8154 7.7808 17.4959L0.504885 10.2169C0.344829 10.057 0.217855 9.86714 0.131223 9.65817C0.0445909 9.4492 0 9.22521 0 8.99899C0 8.77277 0.0445909 8.54878 0.131223 8.33981C0.217855 8.13084 0.344829 7.94099 0.504885 7.78112L7.7808 0.505433C7.94069 0.345213 8.13061 0.218101 8.3397 0.131371C8.54878 0.0446423 8.77291 0 8.99927 0C9.22562 0 9.44976 0.0446423 9.65884 0.131371C9.86792 0.218101 10.0578 0.345213 10.2177 0.505433L17.4959 7.78225C17.6575 7.94385 17.7853 8.13602 17.8718 8.34753C17.9584 8.55904 18.0019 8.78566 17.9999 9.01418C17.9965 9.46605 17.8154 9.89843 17.4959 10.218L10.2166 17.4959C10.0551 17.6574 9.86315 17.7851 9.65183 17.8716C9.44052 17.9581 9.21298 18.0018 8.98464 17.9999ZM8.59311 1.31547L5.36075 4.54886L8.99927 8.18727L12.6378 4.54886L9.40542 1.31547C9.35212 1.26206 9.28882 1.21969 9.21912 1.19078C9.14943 1.16187 9.07472 1.14699 8.99927 1.14699C8.92381 1.14699 8.8491 1.16187 8.77941 1.19078C8.70972 1.21969 8.64641 1.26206 8.59311 1.31547ZM9.81158 8.99955L13.4501 12.638L16.6825 9.4057C16.9075 9.18069 16.9075 8.81729 16.6825 8.59341L13.4501 5.36114L9.81158 8.99955ZM8.99927 9.81184L5.36075 13.4502L8.59311 16.6825C8.81813 16.9075 9.18153 16.9075 9.40542 16.6825L12.6378 13.4502L8.99927 9.81184ZM8.18696 8.99955L4.54844 5.36114L1.31495 8.59341C1.26154 8.64671 1.21917 8.71001 1.19025 8.7797C1.16134 8.84939 1.14646 8.9241 1.14646 8.99955C1.14646 9.075 1.16134 9.14971 1.19025 9.2194C1.21917 9.28909 1.26154 9.3524 1.31495 9.4057L4.54844 12.638L8.18696 8.99955Z" fill="white"/>
</svg>
