<svg width="20" height="7" viewBox="0 0 20 7" fill="none" xmlns="http://www.w3.org/2000/svg">
<path d="M5 1.16731C5.66304 1.16731 6.29893 1.41284 6.76777 1.84987C7.23661 2.2869 7.5 2.87965 7.5 3.49771C7.5 4.11577 7.23661 4.70851 6.76777 5.14554C6.29893 5.58258 5.66304 5.8281 5 5.8281C4.33696 5.8281 3.70107 5.58258 3.23223 5.14554C2.76339 4.70851 2.5 4.11577 2.5 3.49771C2.5 2.87965 2.76339 2.2869 3.23223 1.84987C3.70107 1.41284 4.33696 1.16731 5 1.16731ZM8.28125 1.80468C7.9049 1.16994 7.32608 0.66003 6.62498 0.345608C5.92389 0.031185 5.13523 -0.0721836 4.36831 0.0498252C3.60138 0.171834 2.89415 0.513179 2.34461 1.02656C1.79508 1.53994 1.43045 2.19994 1.30125 2.91511H0.625C0.45924 2.91511 0.300269 2.97649 0.183058 3.08575C0.065848 3.19501 0 3.34319 0 3.49771C0 3.65222 0.065848 3.80041 0.183058 3.90967C0.300269 4.01893 0.45924 4.08031 0.625 4.08031H1.30125C1.45637 4.94596 1.95514 5.72555 2.69848 6.2642C3.44182 6.80285 4.37533 7.06114 5.31355 6.98775C6.25178 6.91437 7.12607 6.51469 7.76272 5.8681C8.39937 5.22152 8.7518 4.37535 8.75 3.49771C8.75 3.18868 8.8817 2.89231 9.11612 2.67379C9.35054 2.45527 9.66848 2.33251 10 2.33251C10.3315 2.33251 10.6495 2.45527 10.8839 2.67379C11.1183 2.89231 11.25 3.18868 11.25 3.49771C11.2482 4.37535 11.6006 5.22152 12.2373 5.8681C12.8739 6.51469 13.7482 6.91437 14.6864 6.98775C15.6247 7.06114 16.5582 6.80285 17.3015 6.2642C18.0449 5.72555 18.5436 4.94596 18.6987 4.08031H19.375C19.5408 4.08031 19.6997 4.01893 19.8169 3.90967C19.9342 3.80041 20 3.65222 20 3.49771C20 3.34319 19.9342 3.19501 19.8169 3.08575C19.6997 2.97649 19.5408 2.91511 19.375 2.91511H18.6987C18.5695 2.19994 18.2049 1.53994 17.6554 1.02656C17.1059 0.513179 16.3986 0.171834 15.6317 0.0498252C14.8648 -0.0721836 14.0761 0.031185 13.375 0.345608C12.6739 0.66003 12.0951 1.16994 11.7188 1.80468C11.2543 1.3952 10.6393 1.16711 10 1.16731C9.335 1.16731 8.73 1.40967 8.28125 1.80468ZM17.5 3.49771C17.5 4.11577 17.2366 4.70851 16.7678 5.14554C16.2989 5.58258 15.663 5.8281 15 5.8281C14.337 5.8281 13.7011 5.58258 13.2322 5.14554C12.7634 4.70851 12.5 4.11577 12.5 3.49771C12.5 2.87965 12.7634 2.2869 13.2322 1.84987C13.7011 1.41284 14.337 1.16731 15 1.16731C15.663 1.16731 16.2989 1.41284 16.7678 1.84987C17.2366 2.2869 17.5 2.87965 17.5 3.49771Z" fill="white"/>
</svg>
