<svg width="90" height="61" viewBox="0 0 90 61" fill="none" xmlns="http://www.w3.org/2000/svg">
<g clip-path="url(#clip0_10_1194)">
<path d="M13.6033 7.78935C13.3278 6.59604 11.5752 6.22119 10.7334 6.18295V2.28171C20.3762 -0.242629 34.9553 -1.96376 41.1542 4.34709C44.1388 4.34709 48.9675 4.45678 49.0753 4.34709C55.2742 -1.96377 70.6567 -0.242629 79.2666 2.39645V6.18295C78.6505 6.18295 77.6593 6.41244 76.9706 7.21564C76.2819 8.36306 76.3069 10.2494 75.5932 13.1822C74.56 17.4277 72.8762 19.1871 71.6899 20.2963C70.1976 21.329 65.5683 23.2098 58.718 22.2469C51.3713 21.2142 48.9223 13.2205 48.3863 8.93677C47.9272 7.10088 42.704 5.83873 41.8432 9.28099C41.1688 11.9762 40.0064 15.4388 39.088 17.313C38.1313 18.6516 37.4808 19.952 34.1518 21.5584C32.2455 22.4783 28.6415 22.517 26.116 22.5911C23.5905 22.6652 19.1135 21.329 17.0472 18.9194C14.9808 16.5098 13.9477 9.28099 13.6033 7.78935Z" fill="#2A2017"/>
<path d="M16.3539 6.05131C15.6651 12.0179 18.4202 16.4929 18.6498 17.1813C22.1319 21.2356 33.7514 21.8746 36.5579 16.6076C42.1831 6.05132 36.9789 3.02975 33.4585 2.60903C27.9865 1.76758 16.9049 1.27801 16.3539 6.05131Z" fill="white"/>
<path d="M50.9077 7.88711C50.6321 9.72297 51.9409 13.6242 52.6296 15.3453C55.3847 19.4761 57.2215 20.4399 63.65 20.1646C71.2267 19.84 71.9153 16.2633 72.604 14.1979C73.1016 12.7063 73.7518 7.67624 73.7518 7.3134C73.7518 7.08391 73.8668 3.75638 71.1117 2.95318C68.3566 2.14999 62.0427 1.69101 57.1066 2.60895C52.5907 3.44871 51.2518 5.59227 50.9077 7.88711Z" fill="white"/>
<path d="M3.29444 50.3559V49.4317C4.22664 49.4163 4.92182 49.3529 5.38003 49.2423C5.85402 49.1317 6.17001 48.9185 6.328 48.6027C6.486 48.2868 6.56502 47.8212 6.56502 47.205V34.579H5.59333C4.88233 34.579 4.28195 34.729 3.79214 35.0291C3.31814 35.3292 2.91525 35.8266 2.58345 36.5215C2.25165 37.2164 1.95145 38.1481 1.68286 39.3167H0.734863C0.892863 38.3376 1.00346 37.3743 1.06666 36.4267C1.12986 35.4792 1.16936 34.5317 1.18516 33.5841C1.84875 33.5999 2.58345 33.6157 3.38924 33.6315C4.19504 33.6473 5.00873 33.6551 5.83031 33.6551C6.65192 33.6551 7.41819 33.6551 8.12919 33.6551C8.79281 33.6551 9.52748 33.6551 10.3333 33.6551C11.1549 33.6551 11.9765 33.6473 12.798 33.6315C13.6197 33.6157 14.3702 33.5999 15.0496 33.5841C15.0653 34.5317 15.1048 35.4792 15.168 36.4267C15.247 37.3743 15.3577 38.3376 15.4998 39.3167H14.5282C14.3386 38.4324 14.1253 37.6901 13.8882 37.09C13.6513 36.4899 13.3827 36.0003 13.0824 35.6213C12.7823 35.2423 12.4268 34.9738 12.016 34.8159C11.621 34.658 11.1628 34.579 10.6414 34.579H9.6697V47.205C9.6697 47.8212 9.74868 48.2868 9.90667 48.6027C10.0647 48.9185 10.3728 49.1317 10.831 49.2423C11.305 49.3529 12.0081 49.4163 12.9403 49.4317V50.3559C12.4189 50.3242 11.7316 50.3083 10.8784 50.3083C10.0252 50.2925 9.11669 50.2845 8.1529 50.2845C7.14173 50.2845 6.20161 50.2925 5.33261 50.3083C4.47943 50.3083 3.80004 50.3242 3.29444 50.3559ZM16.1483 50.3559V49.4317C16.6856 49.3687 17.1437 49.2344 17.5229 49.0291C17.9022 48.808 18.2419 48.4842 18.542 48.0578C18.858 47.6159 19.1661 47.0472 19.4663 46.3521L24.941 33.4183H25.7942L31.9324 47.3948C32.2642 48.1212 32.6434 48.6344 33.07 48.9344C33.4966 49.2344 34.097 49.4004 34.8712 49.4317V50.3559C34.413 50.3242 33.8363 50.3083 33.1411 50.3083C32.4459 50.2925 31.6401 50.2845 30.7238 50.2845C29.6968 50.2845 28.8119 50.2925 28.0693 50.3083C27.3426 50.3083 26.7817 50.3242 26.3867 50.3559V49.4317C27.1925 49.4163 27.785 49.3449 28.1641 49.2185C28.5592 49.0925 28.7803 48.8793 28.8278 48.5789C28.8751 48.2789 28.7803 47.8684 28.5434 47.3472L24.0167 36.9242L24.5381 36.6163L20.8172 45.4759C20.438 46.3759 20.2484 47.1102 20.2484 47.6789C20.2642 48.2476 20.4854 48.674 20.912 48.9582C21.3386 49.2423 21.9943 49.4004 22.8791 49.4317V50.3559C22.3735 50.34 21.8995 50.3321 21.4571 50.3321C21.0147 50.3162 20.596 50.3083 20.201 50.3083C19.806 50.2925 19.4031 50.2845 18.9923 50.2845C18.4867 50.2845 18.0048 50.2925 17.5466 50.3083C17.0885 50.3083 16.6224 50.3242 16.1483 50.3559ZM20.5565 44.8126L20.9594 43.8888H28.3538L28.733 44.8126H20.5565ZM41.9239 50.5215L35.7856 36.5452C35.4696 35.8029 35.0983 35.2818 34.6717 34.9817C34.2451 34.6817 33.6368 34.5237 32.8468 34.508V33.5841C33.305 33.5999 33.8817 33.6157 34.5769 33.6315C35.2879 33.6473 36.0937 33.6551 36.9943 33.6551C38.0055 33.6551 38.8824 33.6473 39.625 33.6315C40.3677 33.6157 40.9442 33.5999 41.355 33.5841V34.508C40.5652 34.5237 39.9725 34.5948 39.5776 34.7212C39.1984 34.8475 38.9851 35.0607 38.9377 35.3607C38.8903 35.6608 38.9851 36.0714 39.2221 36.5926L43.7251 46.9918L43.1799 47.3235L46.9009 38.464C47.2799 37.5638 47.4619 36.8294 47.446 36.2609C47.446 35.6924 47.2327 35.266 46.8061 34.9817C46.3795 34.6817 45.7317 34.5237 44.8626 34.508V33.5841C45.3522 33.5999 45.8185 33.6157 46.261 33.6315C46.7034 33.6315 47.1221 33.6394 47.517 33.6551C47.9277 33.6551 48.3306 33.6551 48.7259 33.6551C49.2472 33.6551 49.7289 33.6473 50.1714 33.6315C50.6297 33.6157 51.0956 33.5999 51.5698 33.5841V34.508C51.0484 34.5553 50.5901 34.6896 50.1952 34.9107C49.8158 35.1318 49.4764 35.4555 49.1758 35.8819C48.8757 36.3083 48.5756 36.8768 48.2755 37.5875L42.8009 50.5215H41.9239ZM62.2136 50.6872C60.8231 50.6872 59.6618 50.4347 58.7297 49.9295C57.7972 49.4238 57.0943 48.674 56.6201 47.6789C56.1463 46.6838 55.9092 45.4442 55.9092 43.9597V36.5452C55.9092 35.9767 55.8462 35.5581 55.7197 35.2897C55.5932 35.0054 55.3407 34.808 54.9612 34.6975C54.5981 34.5869 54.037 34.5237 53.2786 34.508V33.5841C54.0529 33.6315 55.4509 33.6551 57.4733 33.6551C59.401 33.6551 60.7518 33.6315 61.5261 33.5841V34.508C60.7993 34.5237 60.2542 34.5869 59.891 34.6975C59.5433 34.808 59.3141 35.0054 59.2035 35.2897C59.0929 35.5581 59.0378 35.9767 59.0378 36.5452V44.0544C59.0378 45.9654 59.3538 47.3552 59.9858 48.2238C60.6177 49.0766 61.6446 49.5031 63.0668 49.5031C64.5203 49.5031 65.5947 49.0212 66.2897 48.0578C67.0006 47.0789 67.3562 45.6024 67.3562 43.628V36.9716C67.3562 36.3083 67.2932 35.8108 67.1667 35.4792C67.0403 35.1475 66.7952 34.9107 66.4321 34.7685C66.0844 34.6264 65.5551 34.5395 64.8442 34.508V33.5841C65.0967 33.5999 65.4682 33.6157 65.9579 33.6315C66.4479 33.6473 67.0323 33.6551 67.7119 33.6551C68.5017 33.6551 69.1654 33.6473 69.7026 33.6315C70.2398 33.6157 70.6506 33.5999 70.9348 33.5841V34.508C70.2081 34.5395 69.655 34.6343 69.276 34.7922C68.8966 34.9343 68.6361 35.1791 68.4937 35.5265C68.3673 35.874 68.3042 36.3794 68.3042 37.0426V43.7465C68.3042 46.068 67.8066 47.8053 66.8111 48.9582C65.8159 50.111 64.2832 50.6872 62.2136 50.6872ZM73.5841 50.3559V49.4317C74.3584 49.4004 74.9274 49.337 75.2905 49.2423C75.67 49.1476 75.9146 48.9581 76.0252 48.674C76.1517 48.3895 76.2151 47.9631 76.2151 47.3948V36.5452C76.2151 35.9767 76.1517 35.5581 76.0252 35.2897C75.9146 35.0054 75.67 34.808 75.2905 34.6975C74.9274 34.5869 74.3584 34.5237 73.5841 34.508V33.5841C74.4373 33.5999 75.5435 33.6157 76.9022 33.6315C78.2768 33.6473 79.8805 33.6551 81.7134 33.6551C82.3609 33.6551 82.9853 33.6551 83.5856 33.6551C84.2017 33.6394 84.7786 33.6315 85.3158 33.6315C85.8526 33.6157 86.3347 33.5999 86.7614 33.5841C86.7772 34.4211 86.8165 35.2502 86.8799 36.0714C86.9429 36.8926 87.0377 37.7059 87.1642 38.5113H86.2162C85.995 37.5322 85.7186 36.7584 85.3868 36.1899C85.0708 35.6055 84.66 35.1949 84.1545 34.958C83.6645 34.7053 83.0563 34.579 82.3296 34.579H79.3433V47.5842C79.3433 48.0736 79.3829 48.4529 79.4618 48.7212C79.5566 48.9899 79.7303 49.1634 79.9832 49.2423C80.2516 49.3212 80.6469 49.3608 81.1683 49.3608H81.9501C82.8981 49.3608 83.6883 49.2031 84.3203 48.8872C84.9681 48.571 85.5133 48.0499 85.9557 47.3235C86.4137 46.5812 86.8323 45.5786 87.2118 44.3152H88.1831C88.057 45.3733 87.9623 46.3997 87.8988 47.3948C87.8358 48.3736 87.812 49.3608 87.8279 50.3559C87.0694 50.3242 86.1845 50.3083 85.1735 50.3083C84.1621 50.2925 82.9774 50.2845 81.6183 50.2845C79.8171 50.2845 78.2371 50.2925 76.8784 50.3083C75.5355 50.3083 74.4373 50.3242 73.5841 50.3559ZM78.5848 42.3726V41.4726H82.8271V42.3726H78.5848ZM83.5618 45.4284C83.4829 44.6861 83.3406 44.0941 83.1352 43.6518C82.9457 43.2096 82.6614 42.8858 82.282 42.6805C81.9188 42.4752 81.4525 42.3726 80.8836 42.3726V41.4726C81.6738 41.4726 82.274 41.2277 82.6848 40.7383C83.0959 40.2485 83.3564 39.4747 83.467 38.4166H84.344C84.2806 39.3326 84.2493 40.0432 84.2493 40.5485C84.2647 41.0541 84.2727 41.5118 84.2727 41.9224C84.2727 42.2541 84.2727 42.5858 84.2727 42.9175C84.2885 43.2333 84.3044 43.5963 84.3203 44.0073C84.352 44.402 84.3833 44.8756 84.415 45.4284H83.5618Z" fill="#2A2017"/>
</g>
<defs>
<clipPath id="clip0_10_1194">
<rect width="90" height="60.2362" fill="white"/>
</clipPath>
</defs>
</svg>
