<svg width="751" height="249" viewBox="0 0 751 249" fill="none" xmlns="http://www.w3.org/2000/svg">
<path d="M10.7204 68.6311C10.7229 68.6289 10.7219 68.6273 10.7253 68.627C10.8617 68.6137 102.084 59.7564 112.406 54.6822C122.735 49.6041 133.027 42.0108 148.502 39.4798C163.977 36.9487 267.86 21.7463 267.86 21.7463C267.86 21.7463 281.114 18.5785 300.273 30.613C319.432 42.6476 361.433 81.2983 373.206 80.0407C384.997 78.7672 390.884 64.8383 387.2 58.5027C383.517 52.167 311.916 6.36879 299.533 3.37607C281.892 -0.890154 259.012 -0.428511 231.005 3.37607C204.719 6.94925 38.0469 36.583 17.8701 40.1745C16.5242 40.414 15.2357 40.773 14.0247 41.4072C8.73726 44.1762 -5.09945 53.4597 10.693 68.6298C10.7004 68.6369 10.7126 68.6378 10.7204 68.6311Z" fill="white" stroke="#1D1D1B" stroke-width="0.69416" stroke-miterlimit="10"/>
<g style="mix-blend-mode:multiply">
<path d="M377.275 73.7804C378.602 72.972 374.024 70.7306 372.484 70.5213C366.9 69.7677 343.667 50.0891 321.983 35.3027C314.879 30.4585 314.388 32.4685 321.19 37.7287C330.959 45.2906 366.758 80.1859 377.275 73.7804Z" fill="#706F6F"/>
</g>
<path d="M503.042 107.644L670.639 60.2379C670.639 60.2379 711.604 51.2756 717.565 53.8386C723.525 56.4015 750.347 102.518 750.347 107.644C750.347 112.77 745.868 129.946 739.926 131.347C735.613 132.366 730.059 131.522 727.264 124.645C724.654 118.246 714.603 74.1349 704.181 74.5488C693.76 74.9627 610.331 99.9392 610.331 99.9392C610.331 99.9392 585.748 110.191 575.327 117.88C566.987 124.032 533.838 131.826 520.926 134.695C517.602 135.433 514.117 134.763 511.653 132.413C506.728 127.717 499.531 118.586 503.066 107.667C503.071 107.652 503.056 107.638 503.042 107.644Z" fill="white" stroke="#1D1D1B" stroke-width="0.69416" stroke-miterlimit="10"/>
<g style="mix-blend-mode:multiply">
<path d="M515.166 109.482C515.166 108.817 515.491 108.264 516.129 108.076C525.068 105.439 594.424 85.0429 648.799 70.8664C668.075 65.8409 668.014 66.6296 649.004 72.5791C645.262 73.75 641.423 75.0045 637.505 76.3476C597.845 89.9406 529.147 107.812 517.021 110.94C516.072 111.185 515.166 110.463 515.166 109.482Z" fill="#706F6F"/>
</g>
<g style="mix-blend-mode:multiply">
<path d="M715.419 80.5854C714.33 78.6958 715.841 76.8802 716.935 78.7671C719.992 84.0411 733.855 115.461 734.951 117.946C734.987 118.027 735.004 118.02 735.021 118.107C735.373 119.971 739.038 124.46 737.302 125.226C736.404 125.622 735.508 125.518 734.668 124.645C730.429 120.235 716.583 82.7309 716.583 82.7309C716.583 82.7309 716.138 81.832 715.419 80.5854Z" fill="#706F6F"/>
</g>
<path d="M522.524 109.474C522.522 109.479 522.514 109.478 522.514 109.472C522.032 104.056 504.794 101.179 498.988 99.3024C494.743 97.9305 481.198 100.227 474.2 101.565C471.373 102.105 468.499 102.092 465.671 101.552C438.789 96.4117 366.448 88.0478 323.911 88.0478C278.874 88.0478 263.621 106.163 258.531 105.543C253.44 104.922 226.563 104.301 214.938 102.422C203.313 100.544 205.497 79.9293 142.282 60.2696C87.1322 43.113 31.968 40.8438 18.815 40.5441C16.856 40.4994 14.8859 40.7499 13.0612 41.4637C-4.66605 48.3984 0.668102 63.9961 2.72152 68.6179C3.1192 69.513 3.5307 70.3926 3.87494 71.3096L4.06561 71.8175C6.03294 77.0581 10.7921 81.3331 12.3647 86.7053C14.254 93.1596 13.9484 103.552 15.8713 116.781C18.7775 136.775 29.6804 162.388 42.0272 178.005C54.374 193.621 100.873 211.116 124.123 211.736C147.373 212.357 167.716 208.616 182.969 187.365C192.296 174.38 201.9 155.317 207.955 142.465C211.781 134.343 220.374 129.456 229.275 130.634L233.097 131.14C233.097 131.14 238.484 131.633 243 136.059C247.517 140.484 251.201 148.841 257.069 163.614C269.508 194.885 296.573 219.93 302.434 225.11C303.196 225.784 303.901 226.471 304.695 227.107C308.482 230.143 322.989 239.386 365.469 246.248C408.192 253.157 444.51 242.332 444.51 242.332C477.311 230.919 484.549 170.762 484.549 170.762C484.549 170.762 487.937 149.59 499.006 144.257C512.649 137.667 514.315 137.189 522.534 135.788C529.209 134.659 522.991 114.928 522.535 109.476C522.535 109.47 522.527 109.47 522.524 109.474ZM161.913 189.896C161.907 189.896 161.901 189.897 161.896 189.9C144.454 198.015 102.332 201.132 76.1798 183.656C50.0239 166.161 37.6771 135.549 34.049 99.3183C31.1581 70.45 41.2179 62.0872 45.4259 59.8805C46.5579 59.2869 47.8327 59.1299 49.1108 59.1142C55.9391 59.0302 80.2629 59.2504 110.332 65.5706C145.929 73.0683 185.154 94.3039 185.894 108.058C186.616 121.793 179.362 181.759 161.931 189.892C161.925 189.895 161.919 189.896 161.913 189.896ZM447.389 228.618C447.393 228.622 447.392 228.629 447.387 228.631C430.672 235.503 407.651 236.124 388.292 234.866C369.115 233.637 319.757 232.391 301.172 186.23C300.817 185.347 300.54 184.423 300.319 183.498C299.133 178.526 294.9 161.638 291.203 157.39C286.853 152.391 273.765 134.34 273.765 128.052C273.765 114.95 287.001 107.405 287.001 107.405C287.001 107.405 302.106 99.2864 321.709 99.2864C341.33 99.2864 441.567 103.664 455.376 119.901C469.185 136.138 468.445 154.891 470.629 169.886C472.813 184.878 464.099 221.717 447.391 228.606C447.385 228.608 447.384 228.615 447.389 228.618Z" fill="white" stroke="#1D1D1B" stroke-width="0.69416" stroke-miterlimit="10"/>
</svg>
