<svg width="40" height="40" viewBox="0 0 40 40" fill="none" xmlns="http://www.w3.org/2000/svg">
<path d="M0 22C0 12.0589 8.05888 4 18 4C27.9411 4 36 12.0589 36 22C36 31.9411 27.9411 40 18 40C8.05888 40 0 31.9411 0 22Z" fill="#68503B" fill-opacity="0.58"/>
<path d="M21.3337 29.5V27.8333C21.3337 26.9493 20.9825 26.1014 20.3573 25.4763C19.7322 24.8512 18.8844 24.5 18.0003 24.5H13.0003C12.1163 24.5 11.2684 24.8512 10.6433 25.4763C10.0182 26.1014 9.66699 26.9493 9.66699 27.8333V29.5" stroke="#2A2017" stroke-width="1.66667" stroke-linecap="round" stroke-linejoin="round"/>
<path d="M21.333 14.6067C22.0478 14.792 22.6808 15.2094 23.1327 15.7934C23.5846 16.3774 23.8298 17.0949 23.8298 17.8333C23.8298 18.5718 23.5846 19.2893 23.1327 19.8733C22.6808 20.4573 22.0478 20.8747 21.333 21.06" stroke="#2A2017" stroke-width="1.66667" stroke-linecap="round" stroke-linejoin="round"/>
<path d="M26.333 29.5V27.8333C26.3325 27.0948 26.0866 26.3773 25.6341 25.7936C25.1817 25.2099 24.5481 24.793 23.833 24.6083" stroke="#2A2017" stroke-width="1.66667" stroke-linecap="round" stroke-linejoin="round"/>
<path d="M15.5003 21.1667C17.3413 21.1667 18.8337 19.6743 18.8337 17.8333C18.8337 15.9924 17.3413 14.5 15.5003 14.5C13.6594 14.5 12.167 15.9924 12.167 17.8333C12.167 19.6743 13.6594 21.1667 15.5003 21.1667Z" stroke="#2A2017" stroke-width="1.66667" stroke-linecap="round" stroke-linejoin="round"/>
<path d="M24 8C24 3.58172 27.5817 0 32 0C36.4183 0 40 3.58172 40 8C40 12.4183 36.4183 16 32 16C27.5817 16 24 12.4183 24 8Z" fill="#00C950"/>
<path d="M36 5L30.5 10.5L28 8" stroke="white" stroke-width="1.5" stroke-linecap="round" stroke-linejoin="round"/>
</svg>
