<svg width="41" height="41" viewBox="0 0 41 41" fill="none" xmlns="http://www.w3.org/2000/svg">
<path d="M0 20.3148C0 9.09524 9.09524 0 20.3148 0C31.5343 0 40.6296 9.09524 40.6296 20.3148C40.6296 31.5343 31.5343 40.6296 20.3148 40.6296C9.09524 40.6296 0 31.5343 0 20.3148Z" fill="#68503B" fill-opacity="0.58"/>
<path d="M27.839 21.2553C27.839 25.9578 24.5473 28.309 20.6348 29.6728C20.4299 29.7422 20.2074 29.7389 20.0046 29.6634C16.0828 28.309 12.791 25.9578 12.791 21.2553V14.6718C12.791 14.4224 12.8901 14.1832 13.0665 14.0068C13.2429 13.8304 13.4821 13.7313 13.7315 13.7313C15.6125 13.7313 17.9638 12.6027 19.6002 11.1732C19.7995 11.0029 20.0529 10.9094 20.315 10.9094C20.5771 10.9094 20.8305 11.0029 21.0298 11.1732C22.6757 12.6121 25.0175 13.7313 26.8985 13.7313C27.1479 13.7313 27.3872 13.8304 27.5635 14.0068C27.7399 14.1832 27.839 14.4224 27.839 14.6718V21.2553Z" fill="#68503B" fill-opacity="0.58" stroke="#2A2017" stroke-width="1.881" stroke-linecap="round" stroke-linejoin="round"/>
</svg>
