<svg width="21" height="21" viewBox="0 0 21 21" fill="none" xmlns="http://www.w3.org/2000/svg">
<g clip-path="url(#clip0_10_1278)">
<path d="M10.0499 8.19924C10.1942 7.76611 10.8059 7.76611 10.9502 8.19924L11.7968 10.7415C11.9831 11.3004 12.2971 11.8082 12.7138 12.2246C13.1305 12.6411 13.6384 12.9548 14.1974 13.1408L16.7384 13.9874C17.1715 14.1317 17.1715 14.7434 16.7384 14.8877L14.1961 15.7343C13.6372 15.9206 13.1294 16.2346 12.713 16.6513C12.2965 17.0679 11.9828 17.5759 11.7968 18.1349L10.9502 20.6759C10.9191 20.7707 10.8588 20.8533 10.778 20.9118C10.6971 20.9704 10.5999 21.0019 10.5001 21.0019C10.4002 21.0019 10.303 20.9704 10.2221 20.9118C10.1413 20.8533 10.081 20.7707 10.0499 20.6759L9.20331 18.1335C9.0171 17.5748 8.70335 17.0671 8.28691 16.6507C7.87047 16.2343 7.36278 15.9205 6.80406 15.7343L4.26174 14.8877C4.1669 14.8566 4.08431 14.7963 4.02576 14.7155C3.96721 14.6346 3.93568 14.5374 3.93568 14.4375C3.93568 14.3377 3.96721 14.2405 4.02576 14.1596C4.08431 14.0788 4.1669 14.0185 4.26174 13.9874L6.80406 13.1408C7.36278 12.9546 7.87047 12.6408 8.28691 12.2244C8.70335 11.808 9.0171 11.3003 9.20331 10.7415L10.0499 8.19924ZM4.97968 1.5068C4.9985 1.44996 5.03476 1.4005 5.08329 1.36544C5.13183 1.33038 5.19018 1.31152 5.25006 1.31152C5.30993 1.31152 5.36828 1.33038 5.41682 1.36544C5.46536 1.4005 5.50161 1.44996 5.52043 1.5068L6.02837 3.03192C6.25543 3.7118 6.78831 4.24467 7.46818 4.47174L8.99331 4.97967C9.05015 4.99849 9.09961 5.03475 9.13466 5.08329C9.16972 5.13182 9.18859 5.19018 9.18859 5.25005C9.18859 5.30992 9.16972 5.36827 9.13466 5.41681C9.09961 5.46535 9.05015 5.5016 8.99331 5.52042L7.46818 6.02836C7.13267 6.13971 6.8278 6.32786 6.57783 6.57782C6.32787 6.82779 6.13972 7.13267 6.02837 7.46817L5.52043 8.9933C5.50161 9.05014 5.46536 9.0996 5.41682 9.13465C5.36828 9.16971 5.30993 9.18858 5.25006 9.18858C5.19018 9.18858 5.13183 9.16971 5.08329 9.13465C5.03476 9.0996 4.9985 9.05014 4.97968 8.9933L4.47174 7.46817C4.36039 7.13267 4.17225 6.82779 3.92228 6.57782C3.67232 6.32786 3.36744 6.13971 3.03193 6.02836L1.50681 5.52042C1.44997 5.5016 1.40051 5.46535 1.36545 5.41681C1.33039 5.36827 1.31152 5.30992 1.31152 5.25005C1.31152 5.19018 1.33039 5.13182 1.36545 5.08329C1.40051 5.03475 1.44997 4.99849 1.50681 4.97967L3.03193 4.47174C3.36744 4.36039 3.67232 4.17224 3.92228 3.92227C4.17225 3.67231 4.36039 3.36743 4.47174 3.03192L4.97968 1.5068ZM14.2577 0.129986C14.2707 0.0926146 14.295 0.0602085 14.3272 0.0372735C14.3594 0.0143384 14.398 0.00201416 14.4376 0.00201416C14.4771 0.00201416 14.5157 0.0143384 14.5479 0.0372735C14.5801 0.0602085 14.6044 0.0926146 14.6174 0.129986L14.956 1.14586C15.1069 1.59999 15.4626 1.95567 15.9167 2.10661L16.9326 2.44524C16.97 2.45819 17.0024 2.48247 17.0253 2.5147C17.0483 2.54692 17.0606 2.58549 17.0606 2.62505C17.0606 2.6646 17.0483 2.70317 17.0253 2.7354C17.0024 2.76763 16.97 2.7919 16.9326 2.80486L15.9167 3.14349C15.6931 3.2183 15.49 3.34402 15.3233 3.51074C15.1565 3.67747 15.0308 3.88064 14.956 4.10424L14.6174 5.12011C14.6044 5.15748 14.5801 5.18989 14.5479 5.21282C14.5157 5.23576 14.4771 5.24808 14.4376 5.24808C14.398 5.24808 14.3594 5.23576 14.3272 5.21282C14.295 5.18989 14.2707 5.15748 14.2577 5.12011L13.9191 4.10424C13.8443 3.88064 13.7186 3.67747 13.5519 3.51074C13.3851 3.34402 13.182 3.2183 12.9584 3.14349L11.9438 2.80486C11.9064 2.7919 11.874 2.76763 11.8511 2.7354C11.8282 2.70317 11.8158 2.6646 11.8158 2.62505C11.8158 2.58549 11.8282 2.54692 11.8511 2.5147C11.874 2.48247 11.9064 2.45819 11.9438 2.44524L12.9597 2.10661C13.4138 1.95567 13.7695 1.59999 13.9204 1.14586L14.2577 0.129986Z" fill="black"/>
</g>
<defs>
<clipPath id="clip0_10_1278">
<rect width="21" height="21" fill="white"/>
</clipPath>
</defs>
</svg>
